<mxfile host="app.diagrams.net" modified="2024-01-09T20:34:02.732Z" agent="Mozilla/5.0 (Windows NT 10.0; Win64; x64) AppleWebKit/537.36 (KHTML, like Gecko) Chrome/120.0.0.0 Safari/537.36" etag="58YUQWVT8EeQRmZwkIBF" version="22.1.17" type="google">
  <diagram name="Page-1" id="64riaqh-itGS5SUEJX1H">
    <mxGraphModel grid="0" page="1" gridSize="10" guides="1" tooltips="1" connect="1" arrows="1" fold="1" pageScale="1" pageWidth="850" pageHeight="1100" math="0" shadow="0">
      <root>
        <mxCell id="0" />
        <mxCell id="1" parent="0" />
        <mxCell id="NtE_7B9LvR_ZdBDMi-X2-4" style="edgeStyle=orthogonalEdgeStyle;rounded=0;orthogonalLoop=1;jettySize=auto;html=1;exitX=1;exitY=0.75;exitDx=0;exitDy=0;entryX=0.25;entryY=0;entryDx=0;entryDy=0;" edge="1" parent="1" source="NtE_7B9LvR_ZdBDMi-X2-1" target="NtE_7B9LvR_ZdBDMi-X2-3">
          <mxGeometry relative="1" as="geometry" />
        </mxCell>
        <mxCell id="NtE_7B9LvR_ZdBDMi-X2-6" style="edgeStyle=orthogonalEdgeStyle;rounded=0;orthogonalLoop=1;jettySize=auto;html=1;exitX=0;exitY=0.75;exitDx=0;exitDy=0;entryX=0.75;entryY=0;entryDx=0;entryDy=0;" edge="1" parent="1" source="NtE_7B9LvR_ZdBDMi-X2-1" target="NtE_7B9LvR_ZdBDMi-X2-2">
          <mxGeometry relative="1" as="geometry" />
        </mxCell>
        <mxCell id="NtE_7B9LvR_ZdBDMi-X2-9" style="edgeStyle=orthogonalEdgeStyle;rounded=0;orthogonalLoop=1;jettySize=auto;html=1;exitX=0.75;exitY=0;exitDx=0;exitDy=0;" edge="1" parent="1" source="NtE_7B9LvR_ZdBDMi-X2-1">
          <mxGeometry relative="1" as="geometry">
            <mxPoint x="424.7931034482758" y="227.55172413793105" as="targetPoint" />
          </mxGeometry>
        </mxCell>
        <mxCell id="NtE_7B9LvR_ZdBDMi-X2-1" value="Top" style="whiteSpace=wrap;html=1;aspect=fixed;" vertex="1" parent="1">
          <mxGeometry x="365" y="305" width="80" height="80" as="geometry" />
        </mxCell>
        <mxCell id="NtE_7B9LvR_ZdBDMi-X2-7" style="edgeStyle=orthogonalEdgeStyle;rounded=0;orthogonalLoop=1;jettySize=auto;html=1;exitX=0.25;exitY=0;exitDx=0;exitDy=0;entryX=0;entryY=0.25;entryDx=0;entryDy=0;" edge="1" parent="1" source="NtE_7B9LvR_ZdBDMi-X2-2" target="NtE_7B9LvR_ZdBDMi-X2-1">
          <mxGeometry relative="1" as="geometry" />
        </mxCell>
        <mxCell id="NtE_7B9LvR_ZdBDMi-X2-2" value="UART RX" style="whiteSpace=wrap;html=1;aspect=fixed;" vertex="1" parent="1">
          <mxGeometry x="282" y="442" width="80" height="80" as="geometry" />
        </mxCell>
        <mxCell id="NtE_7B9LvR_ZdBDMi-X2-5" style="edgeStyle=orthogonalEdgeStyle;rounded=0;orthogonalLoop=1;jettySize=auto;html=1;exitX=0.75;exitY=0;exitDx=0;exitDy=0;entryX=1;entryY=0.25;entryDx=0;entryDy=0;" edge="1" parent="1" source="NtE_7B9LvR_ZdBDMi-X2-3" target="NtE_7B9LvR_ZdBDMi-X2-1">
          <mxGeometry relative="1" as="geometry" />
        </mxCell>
        <mxCell id="NtE_7B9LvR_ZdBDMi-X2-3" value="UART TX" style="whiteSpace=wrap;html=1;aspect=fixed;" vertex="1" parent="1">
          <mxGeometry x="445" y="440" width="80" height="80" as="geometry" />
        </mxCell>
        <mxCell id="NtE_7B9LvR_ZdBDMi-X2-10" value="" style="endArrow=classic;html=1;rounded=0;entryX=0.25;entryY=0;entryDx=0;entryDy=0;" edge="1" parent="1" target="NtE_7B9LvR_ZdBDMi-X2-1">
          <mxGeometry width="50" height="50" relative="1" as="geometry">
            <mxPoint x="385" y="231" as="sourcePoint" />
            <mxPoint x="450" y="298" as="targetPoint" />
          </mxGeometry>
        </mxCell>
        <mxCell id="NtE_7B9LvR_ZdBDMi-X2-11" value="Top Level Diagram" style="text;html=1;align=center;verticalAlign=middle;resizable=0;points=[];autosize=1;strokeColor=none;fillColor=none;" vertex="1" parent="1">
          <mxGeometry x="219" y="188" width="118" height="26" as="geometry" />
        </mxCell>
        <mxCell id="NtE_7B9LvR_ZdBDMi-X2-12" value="GPIO" style="text;html=1;strokeColor=none;fillColor=none;align=center;verticalAlign=middle;whiteSpace=wrap;rounded=0;" vertex="1" parent="1">
          <mxGeometry x="375" y="249" width="60" height="30" as="geometry" />
        </mxCell>
      </root>
    </mxGraphModel>
  </diagram>
</mxfile>
